<svg height="469.33333pt" viewBox="0 0 469.33333 469.33333" width="469.33333pt" xmlns="http://www.w3.org/2000/svg"><path d="m469.332031 234.667969c0 129.601562-105.0625 234.664062-234.664062 234.664062-129.605469 0-234.667969-105.0625-234.667969-234.664062 0-129.605469 105.0625-234.667969 234.667969-234.667969 129.601562 0 234.664062 105.0625 234.664062 234.667969zm0 0" fill="#ffc107"/><g fill="#fafafa"><path d="m255.253906 330.667969c-52.929687 0-96-43.074219-96-96 0-52.929688 43.070313-96 96-96 25.917969 0 51.070313 10.6875 68.925782 29.3125 6.125 6.375 5.910156 16.511719-.445313 22.632812-6.359375 6.144531-16.492187 5.929688-22.636719-.449219-12.050781-12.585937-28.328125-19.496093-45.84375-19.496093-35.285156 0-64 28.714843-64 64 0 35.285156 28.714844 64 64 64 17.515625 0 33.792969-6.914063 45.84375-19.480469 6.144532-6.355469 16.257813-6.546875 22.636719-.445312 6.378906 6.121093 6.589844 16.253906.445313 22.632812-17.875 18.605469-43.007813 29.292969-68.925782 29.292969zm0 0"/><path d="m229.332031 218.667969h-85.332031c-8.832031 0-16-7.167969-16-16s7.167969-16 16-16h85.332031c8.832031 0 16 7.167969 16 16s-7.167969 16-16 16zm0 0"/><path d="m229.332031 282.667969h-90.664062c-8.832031 0-16-7.167969-16-16s7.167969-16 16-16h90.664062c8.832031 0 16 7.167969 16 16s-7.167969 16-16 16zm0 0"/></g></svg>